# xmcd
#
# Track frame offsets: 
#        150
#        37389
#        63593
#        80819
#        99564
#        115272
#        131749
#        145733
#        167755
#
# Disc length: 2446 seconds
#
# Revision: 0
# Processed by: cddbd v1.5.2PL0 Copyright (c) Steve Scherf et al.
# Submitted via: ExactAudioCopy v0.99pb4
#
DISCID=86098c09
DTITLE=Gene Chandler - Get Down
DYEAR=1978
DGENRE=Soul
TTITLE0=Get Down (Bonus Track)
TTITLE1=Please Sunrise
TTITLE2=Tomorrow I May Not Feel The Same
TTITLE3=I'm The Traveling Kind
TTITLE4=Greatest Love Ever Known
TTITLE5=Give Me The Cue
TTITLE6=What Now (New Version)
TTITLE7=Lovequake
TTITLE8=Get Down
EXTD=
EXTT0=
EXTT1=
EXTT2=
EXTT3=
EXTT4=
EXTT5=
EXTT6=
EXTT7=
EXTT8=
PLAYORDER=
